<?xml version="1.0" encoding="UTF-8" standalone="no"?>
<svg
   xmlns:dc="http://purl.org/dc/elements/1.1/"
   xmlns:cc="http://creativecommons.org/ns#"
   xmlns:rdf="http://www.w3.org/1999/02/22-rdf-syntax-ns#"
   xmlns:svg="http://www.w3.org/2000/svg"
   xmlns="http://www.w3.org/2000/svg"
   xmlns:sodipodi="http://sodipodi.sourceforge.net/DTD/sodipodi-0.dtd"
   xmlns:inkscape="http://www.inkscape.org/namespaces/inkscape"
   width="8"
   height="8"
   version="1.1"
   viewBox="0 0 8 8"
   id="svg24"
   sodipodi:docname="sun-screen.svg"
   inkscape:export-filename="/home/marcel/ownCloud/Dokumente/IT-Projekte/SunScreen/sun-screen/src/assets/sun-screen.png"
   inkscape:export-xdpi="6144"
   inkscape:export-ydpi="6144"
   inkscape:version="0.92.5 (2060ec1f9f, 2020-04-08)">
  <metadata
     id="metadata30">
    <rdf:RDF>
      <cc:Work
         rdf:about="">
        <dc:format>image/svg+xml</dc:format>
        <dc:type
           rdf:resource="http://purl.org/dc/dcmitype/StillImage" />
      </cc:Work>
    </rdf:RDF>
  </metadata>
  <defs
     id="defs28" />
  <sodipodi:namedview
     pagecolor="#ffffff"
     bordercolor="#666666"
     borderopacity="1"
     objecttolerance="10"
     gridtolerance="10"
     guidetolerance="10"
     inkscape:pageopacity="0"
     inkscape:pageshadow="2"
     inkscape:window-width="1920"
     inkscape:window-height="1163"
     id="namedview26"
     showgrid="false"
     inkscape:zoom="11.313709"
     inkscape:cx="36.954311"
     inkscape:cy="4.0467594"
     inkscape:window-x="1920"
     inkscape:window-y="0"
     inkscape:window-maximized="1"
     inkscape:current-layer="svg24" />
  <rect
     x=".14334"
     y=".14284"
     width="7.7091"
     height="7.7091"
     fill="none"
     stroke="#000"
     stroke-width=".27138"
     id="rect2"
     inkscape:export-filename="/home/marcel/Pictures/sun-screen.png"
     inkscape:export-xdpi="6159.0283"
     inkscape:export-ydpi="6159.0283"
     style="stroke:#000000;stroke-opacity:0.97142857;fill:#000000;fill-opacity:0.98095238" />
  <path
     inkscape:connector-curvature="0"
     style="fill:#ff6d00;fill-opacity:1;stroke-width:1.26899993"
     id="path4"
     d="m 6.2006744,3.1133836 c 0.00509,0.00201 0.3570712,0.2045374 0.7821862,0.4500889 L 7.7557958,4.0099321 7.6352002,4.0802258 C 7.5688709,4.1188884 7.2205672,4.320549 6.8611864,4.5283604 L 6.2077656,4.9062052 6.2011287,4.4526773 C 6.1907483,3.7428748 6.1905326,3.1094408 6.2006869,3.1133747 Z" />
  <path
     inkscape:connector-curvature="0"
     style="fill:#aeff00;fill-opacity:1;stroke-width:1.26899993"
     id="path6"
     d="m 3.1079836,1.7881214 c 0.00201,-0.00509 0.2045374,-0.3570712 0.4500889,-0.7821862 l 0.4464596,-0.77293516 0.070294,0.12059561 c 0.038661,0.0663281 0.2403232,0.41463306 0.4481346,0.77401385 l 0.3778448,0.6534207 -0.4535279,0.00665 C 3.7374751,1.7980612 3.1040411,1.7982772 3.107975,1.7881219 Z" />
  <path
     inkscape:connector-curvature="0"
     style="fill:#ffcd00;fill-opacity:1;stroke-width:1.26899993"
     id="path8"
     d="M 4.9336768,1.8055245 C 4.9386988,1.8033375 5.3307977,1.6976621 5.805023,1.5706961 L 6.6672577,1.3398396 6.6316889,1.4748231 C 6.612126,1.5490622 6.5084309,1.9379447 6.4012512,2.3390121 L 6.2063835,3.0682304 5.8809992,2.7522366 C 5.3717495,2.2576819 4.9236783,1.8099026 4.9336781,1.8055372 Z" />
  <path
     inkscape:connector-curvature="0"
     style="fill:#ff007e;fill-opacity:1;stroke-width:1.26899993"
     id="path10"
     d="M 6.6610483,6.676748 C 6.6556105,6.6761338 6.2632041,6.5716011 5.7890295,6.4444448 L 4.9268836,6.2132584 5.0251778,6.114147 C 5.0792398,6.0596358 5.3634805,5.7747022 5.6568352,5.4809541 L 6.1901959,4.94687 6.313992,5.3832284 c 0.1937382,0.682925 0.357896,1.2947607 0.3470588,1.2934917 z" />
  <path
     inkscape:connector-curvature="0"
     style="fill:#007cff;fill-opacity:1;stroke-width:1.26899993"
     id="path12"
     d="m 1.7981393,4.9447693 c 0.0044,0.00325 0.2919715,0.2899792 0.639043,0.6371902 L 3.0682306,6.213249 2.9335517,6.2499345 C 2.8594776,6.2701129 2.4708489,6.3747533 2.069921,6.4824661 L 1.3409694,6.6783108 1.4519384,6.2385135 C 1.6256137,5.5502079 1.7893655,4.9382961 1.7981469,4.944768 Z" />
  <path
     inkscape:connector-curvature="0"
     style="fill:#00f0ff;fill-opacity:1;stroke-width:1.26899993"
     id="path14"
     d="M 1.7830566,4.9067164 C 1.7779629,4.9047157 1.4259853,4.702179 1.0008703,4.4566275 L 0.22793517,4.0101679 0.34853205,3.9398742 C 0.41486014,3.9012128 0.76316511,3.699551 1.1225458,3.4917396 l 0.6534208,-0.3778448 0.00665,0.4535279 c 0.010381,0.7098025 0.010596,1.3432365 4.418e-4,1.3393026 z" />
  <path
     inkscape:connector-curvature="0"
     style="fill:#00ff84;fill-opacity:1;stroke-width:1.26899993"
     id="path16"
     d="M 3.061031,1.811142 C 3.057781,1.815542 2.7710518,2.1031135 2.4238407,2.450185 L 1.7925513,3.0812206 1.7558645,2.9465417 C 1.7356874,2.8724676 1.6310457,2.4838389 1.5233329,2.082911 L 1.3274882,1.3539594 1.7672855,1.4649284 C 2.4555911,1.6386037 3.0675029,1.8023555 3.061031,1.8111369 Z" />
  <path
     inkscape:connector-curvature="0"
     style="fill:#8500ff;fill-opacity:1;stroke-width:1.26899993"
     id="path18"
     d="M 4.8942164,6.2253111 C 4.8922094,6.2303961 4.689679,6.5823823 4.4441275,7.0074973 L 3.9976679,7.7804325 3.9273742,7.6598357 C 3.8887128,7.5935076 3.687051,7.2452026 3.4792396,6.8858218 L 3.1013948,6.232401 3.5549227,6.2257515 c 0.7098025,-0.01038 1.3432365,-0.010596 1.3393026,-4.418e-4 z" />
  <path
     inkscape:connector-curvature="0"
     id="path20"
     style="mix-blend-mode:normal;fill:none;fill-opacity:0.98095238;stroke-width:0.462;stroke:#eeeeee;stroke-opacity:0.99056602;stroke-miterlimit:4;stroke-dasharray:none"
     d="m 3.9996,2.4829 c -0.8378,0 -1.5233,0.68547 -1.5233,1.5233 0,0.83783 0.68547,1.5233 1.5233,1.5233 0.83783,0 1.5233,-0.68547 1.5233,-1.5233 0,-0.83783 -0.68547,-1.5233 -1.5233,-1.5233 z" />
</svg>
